<mxfile host="app.diagrams.net" agent="Mozilla/5.0 (X11; Linux x86_64; rv:109.0) Gecko/20100101 Firefox/115.0" version="24.7.16">
  <diagram name="Page-1" id="hstbj9NbxIu9y6kMWlXi">
    <mxGraphModel dx="833" dy="432" grid="1" gridSize="10" guides="1" tooltips="1" connect="1" arrows="1" fold="1" page="1" pageScale="1" pageWidth="850" pageHeight="1100" math="0" shadow="0">
      <root>
        <mxCell id="0" />
        <mxCell id="1" parent="0" />
        <mxCell id="dDlcalPJPc9BEfTmvSJ7-1" value="Alt" style="shape=umlFrame;whiteSpace=wrap;html=1;pointerEvents=0;fillColor=#ffcc99;strokeColor=#36393d;" vertex="1" parent="1">
          <mxGeometry x="290" y="490" width="1070" height="170" as="geometry" />
        </mxCell>
        <mxCell id="dDlcalPJPc9BEfTmvSJ7-2" value="" style="shape=umlLifeline;perimeter=lifelinePerimeter;whiteSpace=wrap;html=1;container=1;dropTarget=0;collapsible=0;recursiveResize=0;outlineConnect=0;portConstraint=eastwest;newEdgeStyle={&quot;curved&quot;:0,&quot;rounded&quot;:0};participant=umlActor;size=40;" vertex="1" parent="1">
          <mxGeometry x="360" y="80" width="20" height="580" as="geometry" />
        </mxCell>
        <mxCell id="dDlcalPJPc9BEfTmvSJ7-3" value="User Interface" style="shape=umlLifeline;perimeter=lifelinePerimeter;whiteSpace=wrap;html=1;container=1;dropTarget=0;collapsible=0;recursiveResize=0;outlineConnect=0;portConstraint=eastwest;newEdgeStyle={&quot;curved&quot;:0,&quot;rounded&quot;:0};fillColor=#cce5ff;strokeColor=#36393d;" vertex="1" parent="1">
          <mxGeometry x="500" y="110" width="100" height="550" as="geometry" />
        </mxCell>
        <mxCell id="dDlcalPJPc9BEfTmvSJ7-4" value="" style="html=1;points=[[0,0,0,0,5],[0,1,0,0,-5],[1,0,0,0,5],[1,1,0,0,-5]];perimeter=orthogonalPerimeter;outlineConnect=0;targetShapes=umlLifeline;portConstraint=eastwest;newEdgeStyle={&quot;curved&quot;:0,&quot;rounded&quot;:0};fillColor=#cce5ff;strokeColor=#36393d;" vertex="1" parent="dDlcalPJPc9BEfTmvSJ7-3">
          <mxGeometry x="47.5" y="295" width="5" height="245" as="geometry" />
        </mxCell>
        <mxCell id="dDlcalPJPc9BEfTmvSJ7-5" value="" style="html=1;points=[[0,0,0,0,5],[0,1,0,0,-5],[1,0,0,0,5],[1,1,0,0,-5]];perimeter=orthogonalPerimeter;outlineConnect=0;targetShapes=umlLifeline;portConstraint=eastwest;newEdgeStyle={&quot;curved&quot;:0,&quot;rounded&quot;:0};fillColor=#dae8fc;strokeColor=#6c8ebf;" vertex="1" parent="dDlcalPJPc9BEfTmvSJ7-3">
          <mxGeometry x="47.5" y="200" width="5" height="40" as="geometry" />
        </mxCell>
        <mxCell id="dDlcalPJPc9BEfTmvSJ7-6" value="API-Gateway" style="shape=umlLifeline;perimeter=lifelinePerimeter;whiteSpace=wrap;html=1;container=1;dropTarget=0;collapsible=0;recursiveResize=0;outlineConnect=0;portConstraint=eastwest;newEdgeStyle={&quot;curved&quot;:0,&quot;rounded&quot;:0};fillColor=#cce5ff;strokeColor=#36393d;" vertex="1" parent="1">
          <mxGeometry x="640" y="110" width="100" height="550" as="geometry" />
        </mxCell>
        <mxCell id="dDlcalPJPc9BEfTmvSJ7-7" value="" style="html=1;points=[[0,0,0,0,5],[0,1,0,0,-5],[1,0,0,0,5],[1,1,0,0,-5]];perimeter=orthogonalPerimeter;outlineConnect=0;targetShapes=umlLifeline;portConstraint=eastwest;newEdgeStyle={&quot;curved&quot;:0,&quot;rounded&quot;:0};fillColor=#cce5ff;strokeColor=#36393d;" vertex="1" parent="dDlcalPJPc9BEfTmvSJ7-6">
          <mxGeometry x="47.5" y="297.5" width="5" height="242.5" as="geometry" />
        </mxCell>
        <mxCell id="dDlcalPJPc9BEfTmvSJ7-8" value="Payment Controller" style="shape=umlLifeline;perimeter=lifelinePerimeter;whiteSpace=wrap;html=1;container=1;dropTarget=0;collapsible=0;recursiveResize=0;outlineConnect=0;portConstraint=eastwest;newEdgeStyle={&quot;curved&quot;:0,&quot;rounded&quot;:0};fillColor=#ffff88;strokeColor=#36393d;" vertex="1" parent="1">
          <mxGeometry x="780" y="110" width="100" height="550" as="geometry" />
        </mxCell>
        <mxCell id="dDlcalPJPc9BEfTmvSJ7-9" value="Payment Service" style="shape=umlLifeline;perimeter=lifelinePerimeter;whiteSpace=wrap;html=1;container=1;dropTarget=0;collapsible=0;recursiveResize=0;outlineConnect=0;portConstraint=eastwest;newEdgeStyle={&quot;curved&quot;:0,&quot;rounded&quot;:0};fillColor=#ffff88;strokeColor=#36393d;" vertex="1" parent="1">
          <mxGeometry x="910" y="110" width="100" height="550" as="geometry" />
        </mxCell>
        <mxCell id="dDlcalPJPc9BEfTmvSJ7-11" value="RÃ©f" style="shape=umlFrame;whiteSpace=wrap;html=1;pointerEvents=0;fillColor=#ffcc99;strokeColor=#36393d;" vertex="1" parent="1">
          <mxGeometry x="290" y="170" width="500" height="100" as="geometry" />
        </mxCell>
        <mxCell id="dDlcalPJPc9BEfTmvSJ7-12" value="&lt;b&gt;&lt;font style=&quot;font-size: 13px;&quot;&gt;S&#39;authentifier&lt;/font&gt;&lt;/b&gt;" style="text;html=1;align=center;verticalAlign=middle;resizable=0;points=[];autosize=1;strokeColor=none;fillColor=none;" vertex="1" parent="1">
          <mxGeometry x="540" y="205" width="110" height="30" as="geometry" />
        </mxCell>
        <mxCell id="dDlcalPJPc9BEfTmvSJ7-13" value="&lt;font style=&quot;font-size: 8px;&quot;&gt;1: cliquer sur consulter le detail paiement&lt;br&gt;&lt;/font&gt;" style="html=1;verticalAlign=bottom;endArrow=open;curved=0;rounded=0;endFill=0;" edge="1" parent="1" source="dDlcalPJPc9BEfTmvSJ7-2">
          <mxGeometry width="80" relative="1" as="geometry">
            <mxPoint x="375.31034482758605" y="310" as="sourcePoint" />
            <mxPoint x="550" y="310" as="targetPoint" />
          </mxGeometry>
        </mxCell>
        <mxCell id="dDlcalPJPc9BEfTmvSJ7-14" value="&lt;font style=&quot;font-size: 8px;&quot;&gt;3: affiche la liste des paiements&lt;br&gt;&lt;/font&gt;" style="html=1;verticalAlign=bottom;endArrow=block;curved=0;rounded=0;" edge="1" parent="1" target="dDlcalPJPc9BEfTmvSJ7-2">
          <mxGeometry width="80" relative="1" as="geometry">
            <mxPoint x="550" y="349.76" as="sourcePoint" />
            <mxPoint x="375.5" y="349.76" as="targetPoint" />
          </mxGeometry>
        </mxCell>
        <mxCell id="dDlcalPJPc9BEfTmvSJ7-15" value="&lt;font style=&quot;font-size: 8px;&quot;&gt;4: clique sur un detail&lt;br&gt;&lt;/font&gt;" style="html=1;verticalAlign=bottom;endArrow=open;curved=0;rounded=0;entryX=0;entryY=0;entryDx=0;entryDy=5;entryPerimeter=0;endFill=0;" edge="1" parent="1" target="dDlcalPJPc9BEfTmvSJ7-4">
          <mxGeometry width="80" relative="1" as="geometry">
            <mxPoint x="375" y="410" as="sourcePoint" />
            <mxPoint x="540" y="410" as="targetPoint" />
          </mxGeometry>
        </mxCell>
        <mxCell id="dDlcalPJPc9BEfTmvSJ7-16" value="&lt;font style=&quot;font-size: 8px;&quot;&gt;5: getPaymentDetail()&lt;/font&gt;" style="html=1;verticalAlign=bottom;endArrow=open;curved=0;rounded=0;exitX=1;exitY=0;exitDx=0;exitDy=5;exitPerimeter=0;endFill=0;" edge="1" parent="1" source="dDlcalPJPc9BEfTmvSJ7-4">
          <mxGeometry width="80" relative="1" as="geometry">
            <mxPoint x="560" y="410" as="sourcePoint" />
            <mxPoint x="688" y="410" as="targetPoint" />
          </mxGeometry>
        </mxCell>
        <mxCell id="dDlcalPJPc9BEfTmvSJ7-17" value="" style="html=1;points=[[0,0,0,0,5],[0,1,0,0,-5],[1,0,0,0,5],[1,1,0,0,-5]];perimeter=orthogonalPerimeter;outlineConnect=0;targetShapes=umlLifeline;portConstraint=eastwest;newEdgeStyle={&quot;curved&quot;:0,&quot;rounded&quot;:0};fillColor=#cce5ff;strokeColor=#36393d;" vertex="1" parent="1">
          <mxGeometry x="827.5" y="410" width="5" height="240" as="geometry" />
        </mxCell>
        <mxCell id="dDlcalPJPc9BEfTmvSJ7-18" value="" style="html=1;points=[[0,0,0,0,5],[0,1,0,0,-5],[1,0,0,0,5],[1,1,0,0,-5]];perimeter=orthogonalPerimeter;outlineConnect=0;targetShapes=umlLifeline;portConstraint=eastwest;newEdgeStyle={&quot;curved&quot;:0,&quot;rounded&quot;:0};fillColor=#dae8fc;strokeColor=#6c8ebf;" vertex="1" parent="1">
          <mxGeometry x="957.5" y="410" width="5" height="230" as="geometry" />
        </mxCell>
        <mxCell id="dDlcalPJPc9BEfTmvSJ7-19" value="&lt;font style=&quot;font-size: 8px;&quot;&gt;6: dispatcher vers &lt;font style=&quot;font-size: 8px;&quot;&gt;getPaymentDetail&lt;/font&gt;&lt;/font&gt;" style="html=1;verticalAlign=bottom;endArrow=open;curved=0;rounded=0;endFill=0;" edge="1" parent="1" source="dDlcalPJPc9BEfTmvSJ7-7">
          <mxGeometry x="-0.0027" width="80" relative="1" as="geometry">
            <mxPoint x="697" y="410" as="sourcePoint" />
            <mxPoint x="827" y="410" as="targetPoint" />
            <mxPoint as="offset" />
          </mxGeometry>
        </mxCell>
        <mxCell id="dDlcalPJPc9BEfTmvSJ7-20" value="&lt;font style=&quot;font-size: 8px;&quot;&gt;7: &lt;/font&gt;&lt;font style=&quot;font-size: 8px;&quot;&gt;&lt;font style=&quot;font-size: 8px;&quot;&gt;getPaymentDetail&lt;/font&gt;&lt;/font&gt;&lt;font style=&quot;font-size: 8px;&quot;&gt;&lt;font style=&quot;font-size: 8px;&quot;&gt;&lt;font style=&quot;font-size: 8px;&quot;&gt;()&lt;/font&gt;&lt;/font&gt;&lt;/font&gt;" style="html=1;verticalAlign=bottom;endArrow=open;rounded=0;endFill=0;" edge="1" parent="1" source="dDlcalPJPc9BEfTmvSJ7-17">
          <mxGeometry x="-0.08" y="10" width="80" relative="1" as="geometry">
            <mxPoint x="840" y="420" as="sourcePoint" />
            <mxPoint x="960" y="420" as="targetPoint" />
            <mxPoint as="offset" />
          </mxGeometry>
        </mxCell>
        <mxCell id="dDlcalPJPc9BEfTmvSJ7-21" value="Echec" style="text;html=1;align=center;verticalAlign=middle;resizable=0;points=[];autosize=1;strokeColor=none;fillColor=none;" vertex="1" parent="1">
          <mxGeometry x="290" y="610" width="60" height="30" as="geometry" />
        </mxCell>
        <mxCell id="dDlcalPJPc9BEfTmvSJ7-22" value="&lt;h2 style=&quot;font-size: 17px;&quot; class=&quot;AdresseDefinition&quot;&gt;&#x9;&#x9;&#x9;&#x9;&lt;font style=&quot;font-size: 14px; font-weight: normal;&quot;&gt;succÃ¨s&lt;/font&gt;&lt;/h2&gt;" style="text;html=1;align=center;verticalAlign=middle;resizable=0;points=[];autosize=1;strokeColor=none;fillColor=none;" vertex="1" parent="1">
          <mxGeometry x="290" y="520" width="70" height="60" as="geometry" />
        </mxCell>
        <mxCell id="dDlcalPJPc9BEfTmvSJ7-23" value="" style="line;strokeWidth=1;fillColor=none;align=left;verticalAlign=middle;spacingTop=-1;spacingLeft=3;spacingRight=3;rotatable=0;labelPosition=right;points=[];portConstraint=eastwest;strokeColor=inherit;dashed=1;" vertex="1" parent="1">
          <mxGeometry x="290" y="581" width="780" height="8" as="geometry" />
        </mxCell>
        <mxCell id="dDlcalPJPc9BEfTmvSJ7-24" value="Diagramme de SÃ©quence Objet : Consulter le dÃ©tail de paiement" style="shape=umlFrame;whiteSpace=wrap;html=1;pointerEvents=0;width=360;height=30;fillColor=#f9f7ed;strokeColor=#36393d;" vertex="1" parent="1">
          <mxGeometry x="280" y="40" width="1090" height="640" as="geometry" />
        </mxCell>
        <mxCell id="dDlcalPJPc9BEfTmvSJ7-25" value="Client" style="text;html=1;align=center;verticalAlign=middle;resizable=0;points=[];autosize=1;strokeColor=none;fillColor=none;" vertex="1" parent="1">
          <mxGeometry x="310" y="100" width="50" height="30" as="geometry" />
        </mxCell>
        <mxCell id="dDlcalPJPc9BEfTmvSJ7-27" value="Order Microservice" style="shape=umlLifeline;perimeter=lifelinePerimeter;whiteSpace=wrap;html=1;container=1;dropTarget=0;collapsible=0;recursiveResize=0;outlineConnect=0;portConstraint=eastwest;newEdgeStyle={&quot;curved&quot;:0,&quot;rounded&quot;:0};fillColor=#ffff88;strokeColor=#36393d;" vertex="1" parent="1">
          <mxGeometry x="1160" y="110" width="100" height="300" as="geometry" />
        </mxCell>
        <mxCell id="dDlcalPJPc9BEfTmvSJ7-51" value="" style="html=1;verticalAlign=bottom;endArrow=open;rounded=0;dashed=1;endFill=0;" edge="1" parent="1" target="dDlcalPJPc9BEfTmvSJ7-17">
          <mxGeometry x="-0.08" y="10" width="80" relative="1" as="geometry">
            <mxPoint x="960" y="530" as="sourcePoint" />
            <mxPoint x="840" y="530" as="targetPoint" />
            <mxPoint as="offset" />
          </mxGeometry>
        </mxCell>
        <mxCell id="dDlcalPJPc9BEfTmvSJ7-52" value="&lt;font style=&quot;font-size: 9px;&quot;&gt;19: &lt;/font&gt;&lt;font style=&quot;font-size: 8px;&quot;&gt;&lt;font style=&quot;font-size: 8px;&quot;&gt;getPaymentDetail&lt;/font&gt;&lt;/font&gt;" style="edgeLabel;html=1;align=center;verticalAlign=middle;resizable=0;points=[];" vertex="1" connectable="0" parent="dDlcalPJPc9BEfTmvSJ7-51">
          <mxGeometry x="0.0139" y="1" relative="1" as="geometry">
            <mxPoint as="offset" />
          </mxGeometry>
        </mxCell>
        <mxCell id="dDlcalPJPc9BEfTmvSJ7-53" value="" style="html=1;verticalAlign=bottom;endArrow=open;rounded=0;dashed=1;endFill=0;" edge="1" parent="1">
          <mxGeometry x="-0.08" y="10" width="80" relative="1" as="geometry">
            <mxPoint x="824" y="540" as="sourcePoint" />
            <mxPoint x="694" y="540" as="targetPoint" />
            <mxPoint as="offset" />
          </mxGeometry>
        </mxCell>
        <mxCell id="dDlcalPJPc9BEfTmvSJ7-54" value="&lt;font style=&quot;font-size: 9px;&quot;&gt;20&lt;/font&gt;&lt;font style=&quot;font-size: 9px;&quot;&gt;: OrderPlaced&lt;/font&gt;" style="edgeLabel;html=1;align=center;verticalAlign=middle;resizable=0;points=[];" vertex="1" connectable="0" parent="dDlcalPJPc9BEfTmvSJ7-53">
          <mxGeometry x="0.0139" y="1" relative="1" as="geometry">
            <mxPoint as="offset" />
          </mxGeometry>
        </mxCell>
        <mxCell id="dDlcalPJPc9BEfTmvSJ7-55" value="" style="html=1;verticalAlign=bottom;endArrow=open;rounded=0;dashed=1;endFill=0;" edge="1" parent="1" target="dDlcalPJPc9BEfTmvSJ7-4">
          <mxGeometry x="-0.08" y="10" width="80" relative="1" as="geometry">
            <mxPoint x="680" y="550" as="sourcePoint" />
            <mxPoint x="560" y="550" as="targetPoint" />
            <mxPoint as="offset" />
          </mxGeometry>
        </mxCell>
        <mxCell id="dDlcalPJPc9BEfTmvSJ7-56" value="&lt;font style=&quot;font-size: 9px;&quot;&gt;21: OrderPlaced&lt;/font&gt;" style="edgeLabel;html=1;align=center;verticalAlign=middle;resizable=0;points=[];" vertex="1" connectable="0" parent="dDlcalPJPc9BEfTmvSJ7-55">
          <mxGeometry x="0.0139" y="1" relative="1" as="geometry">
            <mxPoint as="offset" />
          </mxGeometry>
        </mxCell>
        <mxCell id="dDlcalPJPc9BEfTmvSJ7-57" value="" style="html=1;verticalAlign=bottom;endArrow=open;rounded=0;dashed=1;endFill=0;" edge="1" parent="1" source="dDlcalPJPc9BEfTmvSJ7-4" target="dDlcalPJPc9BEfTmvSJ7-2">
          <mxGeometry x="-0.08" y="10" width="80" relative="1" as="geometry">
            <mxPoint x="540" y="560" as="sourcePoint" />
            <mxPoint x="415" y="560" as="targetPoint" />
            <mxPoint as="offset" />
            <Array as="points">
              <mxPoint x="510" y="560" />
            </Array>
          </mxGeometry>
        </mxCell>
        <mxCell id="dDlcalPJPc9BEfTmvSJ7-58" value="&lt;font style=&quot;font-size: 9px;&quot;&gt;21: OrderPlaced&lt;/font&gt;" style="edgeLabel;html=1;align=center;verticalAlign=middle;resizable=0;points=[];" vertex="1" connectable="0" parent="dDlcalPJPc9BEfTmvSJ7-57">
          <mxGeometry x="0.0139" y="1" relative="1" as="geometry">
            <mxPoint as="offset" />
          </mxGeometry>
        </mxCell>
        <mxCell id="dDlcalPJPc9BEfTmvSJ7-59" value="" style="html=1;verticalAlign=bottom;endArrow=open;rounded=0;dashed=1;endFill=0;" edge="1" parent="1" target="dDlcalPJPc9BEfTmvSJ7-17">
          <mxGeometry x="-0.08" y="10" width="80" relative="1" as="geometry">
            <mxPoint x="962.5" y="604.66" as="sourcePoint" />
            <mxPoint x="836" y="605" as="targetPoint" />
            <mxPoint as="offset" />
          </mxGeometry>
        </mxCell>
        <mxCell id="dDlcalPJPc9BEfTmvSJ7-60" value="&lt;font style=&quot;font-size: 9px;&quot;&gt;19: &lt;/font&gt;&lt;font style=&quot;font-size: 10px;&quot;&gt;return &lt;/font&gt;&lt;font style=&quot;font-size: 9px;&quot;&gt;exception&lt;br&gt;&lt;/font&gt;" style="edgeLabel;html=1;align=center;verticalAlign=middle;resizable=0;points=[];" vertex="1" connectable="0" parent="dDlcalPJPc9BEfTmvSJ7-59">
          <mxGeometry x="0.0139" y="1" relative="1" as="geometry">
            <mxPoint as="offset" />
          </mxGeometry>
        </mxCell>
        <mxCell id="dDlcalPJPc9BEfTmvSJ7-61" value="" style="html=1;verticalAlign=bottom;endArrow=open;rounded=0;dashed=1;endFill=0;" edge="1" parent="1" target="dDlcalPJPc9BEfTmvSJ7-7">
          <mxGeometry x="-0.08" y="10" width="80" relative="1" as="geometry">
            <mxPoint x="827.5" y="610" as="sourcePoint" />
            <mxPoint x="700.5" y="610" as="targetPoint" />
            <mxPoint as="offset" />
          </mxGeometry>
        </mxCell>
        <mxCell id="dDlcalPJPc9BEfTmvSJ7-62" value="&lt;font style=&quot;font-size: 9px;&quot;&gt;20: &lt;/font&gt;&lt;font style=&quot;font-size: 10px;&quot;&gt;return &lt;/font&gt;&lt;font style=&quot;font-size: 9px;&quot;&gt;exception&lt;/font&gt;" style="edgeLabel;html=1;align=center;verticalAlign=middle;resizable=0;points=[];" vertex="1" connectable="0" parent="dDlcalPJPc9BEfTmvSJ7-61">
          <mxGeometry x="0.0139" y="1" relative="1" as="geometry">
            <mxPoint as="offset" />
          </mxGeometry>
        </mxCell>
        <mxCell id="dDlcalPJPc9BEfTmvSJ7-63" value="" style="html=1;verticalAlign=bottom;endArrow=open;rounded=0;dashed=1;endFill=0;" edge="1" parent="1">
          <mxGeometry x="-0.08" y="10" width="80" relative="1" as="geometry">
            <mxPoint x="684.5" y="620" as="sourcePoint" />
            <mxPoint x="550" y="620" as="targetPoint" />
            <mxPoint as="offset" />
          </mxGeometry>
        </mxCell>
        <mxCell id="dDlcalPJPc9BEfTmvSJ7-64" value="&lt;font style=&quot;font-size: 9px;&quot;&gt;21: &lt;/font&gt;&lt;font style=&quot;font-size: 10px;&quot;&gt;return &lt;/font&gt;&lt;font style=&quot;font-size: 9px;&quot;&gt;exception&lt;/font&gt;" style="edgeLabel;html=1;align=center;verticalAlign=middle;resizable=0;points=[];" vertex="1" connectable="0" parent="dDlcalPJPc9BEfTmvSJ7-63">
          <mxGeometry x="0.0139" y="1" relative="1" as="geometry">
            <mxPoint as="offset" />
          </mxGeometry>
        </mxCell>
        <mxCell id="dDlcalPJPc9BEfTmvSJ7-65" value="" style="html=1;verticalAlign=bottom;endArrow=open;rounded=0;dashed=1;endFill=0;" edge="1" parent="1" target="dDlcalPJPc9BEfTmvSJ7-2">
          <mxGeometry x="-0.08" y="10" width="80" relative="1" as="geometry">
            <mxPoint x="544.5" y="624.66" as="sourcePoint" />
            <mxPoint x="410" y="624.66" as="targetPoint" />
            <mxPoint as="offset" />
          </mxGeometry>
        </mxCell>
        <mxCell id="dDlcalPJPc9BEfTmvSJ7-66" value="&lt;font style=&quot;font-size: 9px;&quot;&gt;22: &lt;/font&gt;&lt;font style=&quot;font-size: 10px;&quot;&gt;return &lt;/font&gt;&lt;font style=&quot;font-size: 9px;&quot;&gt;exception&lt;/font&gt;" style="edgeLabel;html=1;align=center;verticalAlign=middle;resizable=0;points=[];" vertex="1" connectable="0" parent="dDlcalPJPc9BEfTmvSJ7-65">
          <mxGeometry x="0.0139" y="1" relative="1" as="geometry">
            <mxPoint as="offset" />
          </mxGeometry>
        </mxCell>
        <mxCell id="dDlcalPJPc9BEfTmvSJ7-67" value="RÃ©f" style="shape=umlFrame;whiteSpace=wrap;html=1;pointerEvents=0;fillColor=#ffcc99;strokeColor=#36393d;" vertex="1" parent="1">
          <mxGeometry x="1070" y="410" width="270" height="240" as="geometry" />
        </mxCell>
        <mxCell id="dDlcalPJPc9BEfTmvSJ7-68" value="&lt;b&gt;GetDetailOrder&lt;/b&gt;" style="text;html=1;align=center;verticalAlign=middle;resizable=0;points=[];autosize=1;strokeColor=none;fillColor=none;" vertex="1" parent="1">
          <mxGeometry x="1160" y="520" width="110" height="30" as="geometry" />
        </mxCell>
        <mxCell id="dDlcalPJPc9BEfTmvSJ7-69" value="&lt;font style=&quot;font-size: 8px;&quot;&gt;7: &lt;/font&gt;&lt;font style=&quot;font-size: 8px;&quot;&gt;&lt;font style=&quot;font-size: 8px;&quot;&gt;getPaymentDetail&lt;/font&gt;&lt;/font&gt;&lt;font style=&quot;font-size: 8px;&quot;&gt;&lt;font style=&quot;font-size: 8px;&quot;&gt;&lt;font style=&quot;font-size: 8px;&quot;&gt;()&lt;/font&gt;&lt;/font&gt;&lt;/font&gt;" style="html=1;verticalAlign=bottom;endArrow=open;rounded=0;endFill=0;" edge="1" parent="1">
          <mxGeometry x="-0.08" y="10" width="80" relative="1" as="geometry">
            <mxPoint x="957.5" y="420" as="sourcePoint" />
            <mxPoint x="1070" y="420" as="targetPoint" />
            <mxPoint as="offset" />
          </mxGeometry>
        </mxCell>
        <mxCell id="dDlcalPJPc9BEfTmvSJ7-70" value="" style="html=1;verticalAlign=bottom;endArrow=open;rounded=0;dashed=1;endFill=0;" edge="1" parent="1">
          <mxGeometry x="-0.08" y="10" width="80" relative="1" as="geometry">
            <mxPoint x="1070" y="529.17" as="sourcePoint" />
            <mxPoint x="960" y="529" as="targetPoint" />
            <mxPoint as="offset" />
          </mxGeometry>
        </mxCell>
        <mxCell id="dDlcalPJPc9BEfTmvSJ7-71" value="&lt;font style=&quot;font-size: 9px;&quot;&gt;18:&amp;nbsp;&lt;/font&gt;&lt;font style=&quot;font-size: 8px;&quot;&gt;&lt;font style=&quot;font-size: 8px;&quot;&gt;getPaymentDetail&lt;/font&gt;&lt;/font&gt;" style="edgeLabel;html=1;align=center;verticalAlign=middle;resizable=0;points=[];" vertex="1" connectable="0" parent="dDlcalPJPc9BEfTmvSJ7-70">
          <mxGeometry x="0.0139" y="1" relative="1" as="geometry">
            <mxPoint as="offset" />
          </mxGeometry>
        </mxCell>
        <mxCell id="dDlcalPJPc9BEfTmvSJ7-73" value="" style="html=1;verticalAlign=bottom;endArrow=open;rounded=0;dashed=1;endFill=0;" edge="1" parent="1">
          <mxGeometry x="-0.08" y="10" width="80" relative="1" as="geometry">
            <mxPoint x="1070" y="600" as="sourcePoint" />
            <mxPoint x="962.5" y="600.34" as="targetPoint" />
            <mxPoint as="offset" />
          </mxGeometry>
        </mxCell>
        <mxCell id="dDlcalPJPc9BEfTmvSJ7-74" value="&lt;font style=&quot;font-size: 9px;&quot;&gt;18: &lt;/font&gt;&lt;font style=&quot;font-size: 10px;&quot;&gt;return &lt;/font&gt;&lt;font style=&quot;font-size: 9px;&quot;&gt;exception&lt;br&gt;&lt;/font&gt;" style="edgeLabel;html=1;align=center;verticalAlign=middle;resizable=0;points=[];" vertex="1" connectable="0" parent="dDlcalPJPc9BEfTmvSJ7-73">
          <mxGeometry x="0.0139" y="1" relative="1" as="geometry">
            <mxPoint as="offset" />
          </mxGeometry>
        </mxCell>
      </root>
    </mxGraphModel>
  </diagram>
</mxfile>
